#!OML:ASF H:\Dans Jumps\Project 1\Capture day 1\Session 1\subject.ASF
:FULLY-SPECIFIED
:DEGREES
420
root 0.116757 18.178 1.73607 10.5701 0.21865 -1.36067
lowerback 3.86663 1.58522 -1.10201
upperback 4.98289 2.07277 0.880992
thorax 2.88825 0.982379 1.49538
lowerneck -11.848 -1.26953 -1.93489
upperneck 30.6916 -2.18279 2.80727
head 12.0924 -0.828978 1.09855
rclavicle 1.22253e-014 5.96354e-015
rhumerus -23.4582 -3.98052 -85.9905
rradius 30.3437
rwrist 30.0559
rhand -23.53 -29.2118
rfingers 7.12502
rthumb 2.93122 -59.1714
lclavicle 1.22253e-014 5.96354e-015
lhumerus -25.3758 -3.51512 89.5716
lradius 20.6621
lwrist 15.8827
lhand -28.8288 -10.7395
lfingers 7.12502
lthumb -2.18641 19.229
rfemur -24.4405 -2.99326 20.8391
rtibia 23.3645
rfoot -1.16539 0.766697
rtoes 19.1005
lfemur -25.0493 1.02453 -16.0797
ltibia 25.8342
lfoot 1.13926 2.92789
ltoes 8.08615
421
root 0.115313 18.1796 1.80618 10.5398 0.13592 -1.2113
lowerback 3.60649 1.56604 -1.22999
upperback 4.92608 2.04885 0.84517
thorax 2.97283 0.966491 1.53721
lowerneck -11.7718 -1.23312 -1.95533
upperneck 30.9083 -2.10348 2.71726
head 12.1606 -0.807013 1.08138
rclavicle 1.11816e-014 -8.34896e-015
rhumerus -23.7416 -4.11866 -85.9359
rradius 30.4137
rwrist 29.8881
rhand -23.682 -29.1804
rfingers 7.12502
rthumb 2.78447 -59.142
lclavicle 1.11816e-014 -8.34896e-015
lhumerus -25.841 -3.72787 89.5352
lradius 20.4685
lwrist 14.9827
lhand -27.9771 -9.91216
lfingers 7.12502
lthumb -1.36383 20.0632
rfemur -23.9865 -2.97301 20.6079
rtibia 23.0797
rfoot -1.38873 1.01321
rtoes 19.0644
lfemur -24.1482 1.01151 -16.2937
ltibia 24.7987
lfoot 0.961388 3.25124
ltoes 8.01726
422
root 0.114014 18.1731 1.87692 10.482 0.0755163 -1.08253
lowerback 3.35788 1.53838 -1.33338
upperback 4.86506 2.01426 0.821292
thorax 3.04756 0.945937 1.57711
lowerneck -11.6917 -1.193 -1.97108
upperneck 31.1188 -2.01888 2.62483
head 12.2256 -0.7827 1.06306
rclavicle -2.09221e-014 4.77083e-015
rhumerus -24.032 -4.3442 -85.8501
rradius 30.4822
rwrist 29.6897
rhand -23.8413 -29.1521
rfingers 7.12502
rthumb 2.63059 -59.1156
lclavicle -2.09221e-014 4.77083e-015
lhumerus -26.2959 -3.89272 89.4976
lradius 20.3293
lwrist 14.7339
lhand -27.05 -9.18603
lfingers 7.12502
lthumb -0.468373 20.7932
rfemur -23.5264 -2.95832 20.3998
rtibia 22.855
rfoot -1.73409 1.26707
rtoes 19.0641
lfemur -23.2484 1.08754 -16.5098
ltibia 23.8326
lfoot 0.687756 3.53889
ltoes 7.66007
423
root 0.11303 18.1596 1.94748 10.4089 0.030371 -0.987966
lowerback 3.11649 1.50201 -1.40463
upperback 4.80231 1.96841 0.813619
thorax 3.11754 0.92056 1.61533
lowerneck -11.6188 -1.14626 -1.98967
upperneck 31.3198 -1.92545 2.53853
head 12.2885 -0.754236 1.04855
rclavicle -4.47266e-016 -7.95139e-015
rhumerus -24.3126 -4.61959 -85.7401
rradius 30.5443
rwrist 29.486
rhand -23.9954 -29.1243
rfingers 7.12502
rthumb 2.48177 -59.0896
lclavicle -4.47266e-016 -7.95139e-015
lhumerus -26.7241 -3.99642 89.4595
lradius 20.2126
lwrist 15.0594
lhand -26.1691 -8.67691
lfingers 7.12502
lthumb 0.382415 21.3025
rfemur -23.0628 -2.95272 20.2351
rtibia 22.6645
rfoot -2.18358 1.52366
rtoes 19.114
lfemur -22.3821 1.26574 -16.7106
ltibia 22.9634
lfoot 0.321194 3.77653
ltoes 7.05634
424
root 0.112405 18.1402 2.01719 10.3279 -0.00124237 -0.947992
lowerback 2.87737 1.45831 -1.42349
upperback 4.74183 1.91296 0.825895
thorax 3.19011 0.891688 1.64454
lowerneck -11.5599 -1.09525 -2.01442
upperneck 31.5037 -1.82821 2.46665
head 12.3478 -0.723192 1.04082
rclavicle -5.11871e-015 -5.56597e-015
rhumerus -24.5653 -4.92625 -85.6125
rradius 30.5955
rwrist 29.2882
rhand -24.1108 -29.1026
rfingers 7.12502
rthumb 2.37037 -59.0692
lclavicle -5.11871e-015 -5.56597e-015
lhumerus -27.1096 -4.01751 89.4102
lradius 20.0985
lwrist 15.788
lhand -25.3707 -8.35037
lfingers 7.12502
lthumb 1.15357 21.6263
rfemur -22.5887 -2.9536 20.1384
rtibia 22.4789
rfoot -2.72106 1.77211
rtoes 19.2148
lfemur -21.5734 1.54994 -16.8688
ltibia 22.2129
lfoot -0.137311 3.9528
ltoes 6.31422
425
root 0.112055 18.1167 2.08496 10.2454 -0.0183159 -0.962887
lowerback 2.65056 1.40903 -1.38854
upperback 4.67898 1.84972 0.855481
thorax 3.25479 0.860487 1.66076
lowerneck -11.5156 -1.04083 -2.03088
upperneck 31.671 -1.72842 2.39775
head 12.4036 -0.689822 1.03288
rclavicle 9.24349e-015 -1.98785e-015
rhumerus -24.7887 -5.2539 -85.4723
rradius 30.6231
rwrist 29.1118
rhand -24.188 -29.0887
rfingers 7.12502
rthumb 2.29576 -59.0561
lclavicle 9.24349e-015 -1.98785e-015
lhumerus -27.4478 -3.95488 89.3422
lradius 19.9726
lwrist 16.7071
lhand -24.6784 -8.07905
lfingers 7.12502
lthumb 1.82213 21.8929
rfemur -22.1015 -2.95475 20.1109
rtibia 22.2752
rfoot -3.32762 1.99423
rtoes 19.3372
lfemur -20.8438 1.92338 -16.9766
ltibia 21.5939
lfoot -0.680752 4.06437
ltoes 5.56519
